<?xml version="1.0" standalone="no"?>
<!DOCTYPE svg PUBLIC "-//W3C//DTD SVG 20010904//EN"
 "http://www.w3.org/TR/2001/REC-SVG-20010904/DTD/svg10.dtd"> <svg height="50" width="auto" version="1.0" xmlns="http://www.w3.org/2000/svg" width="1919.000000pt" height="373.000000pt" viewBox="0 0 1919.000000 373.000000" preserveAspectRatio="xMidYMid meet">

                                <g transform="translate(0.000000,373.000000) scale(0.100000,-0.100000)" fill="#000000" stroke="none">
                                    <path fill="red" class="left-path" d="M1682 2233 l-362 -238 0 -115 0 -115 356 -240 c196 -132 360 -241
365 -243 5 -2 9 65 9 156 l0 159 -215 139 c-118 76 -213 143 -212 149 2 5 99
68 215 140 l211 130 1 158 c0 86 -1 157 -3 157 -1 0 -165 -107 -365 -237z" />

                                    <path class="left-path" d="M2566 2036 c-168 -409 -306 -747 -306 -750 0 -3 51 -6 114 -6 l113 0
31 73 c91 218 582 1416 582 1421 0 3 -51 6 -114 6 l-113 0 -307 -744z" />

                                    <path class="left-path" d="M3220 2060 l0 -760 93 0 c74 0 98 4 124 20 29 17 40 18 105 10 40 -5
193 -15 339 -21 375 -16 475 -2 554 76 61 62 67 101 63 482 l-3 340 -30 49
c-24 38 -43 55 -90 79 -59 30 -63 30 -245 34 -171 3 -521 -12 -597 -25 l-33
-6 0 241 0 241 -140 0 -140 0 0 -760z m975 85 l25 -24 0 -270 c0 -154 -4 -281
-10 -296 -20 -52 -51 -56 -386 -53 -258 3 -306 5 -314 18 -6 9 -10 146 -10
322 l0 308 23 5 c33 8 136 11 405 13 l243 2 24 -25z" />
                                    <path class="left-path" d="M4785 2783 c4 -21 9 -363 12 -760 l4 -723 144 0 145 0 0 760 0 760
-156 0 -156 0 7 -37z" />
                                    <path class="left-path" d="M5547 2356 c-72 -20 -128 -63 -157 -121 l-25 -50 0 -355 c0 -347 1
-356 22 -396 30 -56 73 -90 141 -111 51 -16 104 -18 482 -18 416 0 426 1 481
23 30 12 69 37 86 54 57 60 65 105 70 383 7 365 -9 466 -84 537 -66 63 -66 63
-538 65 -331 2 -441 -1 -478 -11z m766 -197 c46 -21 48 -37 45 -333 l-3 -279
-28 -21 c-27 -20 -42 -21 -285 -24 -292 -4 -331 0 -370 33 l-27 23 0 282 0
282 28 24 28 24 294 0 c194 0 302 -4 318 -11z" />
                                    <path class="left-path" d="M7097 2360 c-82 -21 -136 -60 -170 -125 -21 -38 -22 -55 -25 -370 -4
-369 1 -415 50 -471 45 -51 97 -74 196 -85 134 -16 503 4 712 37 l40 7 0 -94
c0 -108 -11 -137 -60 -162 -32 -17 -63 -18 -390 -14 -313 4 -364 7 -431 24
l-77 20 -36 -91 c-42 -105 -41 -107 47 -126 118 -25 840 -40 966 -20 82 14
150 49 195 102 66 77 66 72 66 760 l0 618 -90 0 c-63 0 -100 -5 -121 -16 -26
-13 -43 -14 -117 -4 -112 15 -704 23 -755 10z m661 -197 l142 -6 0 -318 c0
-304 -1 -319 -19 -329 -26 -14 -583 -13 -633 1 -67 18 -69 32 -66 340 l3 271
28 24 c28 24 32 24 215 24 103 0 251 -3 330 -7z" />
                                    <path class="left-path" d="M8550 2812 c-62 -30 -86 -117 -57 -202 30 -87 218 -109 289 -33 18
19 23 39 26 92 5 83 -14 126 -63 147 -48 20 -152 18 -195 -4z" />
                                    <path class="left-path" d="M8500 1835 l0 -535 145 0 145 0 0 535 0 535 -145 0 -145 0 0 -535z" />
                                    <path class="left-path" d="M9287 2359 c-56 -13 -111 -45 -140 -79 -51 -61 -57 -105 -57 -451 0
-348 5 -385 58 -442 68 -73 151 -87 502 -86 410 0 636 18 684 54 17 13 16 17
-26 87 l-45 73 -74 -1 c-41 0 -217 -4 -391 -9 -425 -11 -428 -10 -428 163 l0
74 38 -6 c20 -4 234 -9 475 -12 l437 -6 0 219 c0 176 -3 229 -16 267 -23 66
-73 112 -153 138 -63 21 -85 22 -446 24 -209 2 -397 -1 -418 -7z m711 -200
c37 -13 42 -29 42 -152 l0 -97 -332 2 -333 3 0 103 c0 101 1 104 28 128 l28
24 268 0 c163 0 280 -4 299 -11z" />

                                    <path class="right-path" d="M10896 2713 c-3 -10 -15 -71 -27 -136 -29 -156 -38 -168 -142 -175
l-77 -5 0 -98 0 -99 100 0 100 0 0 -305 c0 -324 6 -382 46 -452 48 -83 138
-113 339 -113 107 0 375 17 383 24 1 2 -3 43 -10 92 l-13 89 -207 5 c-182 4
-210 7 -225 23 -16 16 -18 46 -21 327 l-3 310 251 0 250 0 0 100 0 100 -247 2
-248 3 -3 163 -2 162 -120 0 c-104 0 -119 -2 -124 -17z" />

                                    <path class="right-path" d="M11977 2382 c-65 -23 -110 -62 -138 -119 -24 -48 -24 -49 -24 -393 0
-375 2 -393 56 -455 16 -18 53 -43 81 -56 l53 -24 450 0 c386 1 461 3 525 18
111 25 113 30 54 127 -49 81 -49 82 -84 76 -19 -3 -200 -9 -402 -12 -395 -7
-415 -5 -437 42 -6 14 -11 59 -11 101 l0 76 98 -6 c53 -4 267 -10 475 -13
l378 -7 -3 245 -3 245 -30 49 c-34 56 -104 97 -194 114 -30 6 -215 10 -425 10
-324 -1 -377 -3 -419 -18z m727 -192 c21 -4 43 -15 47 -22 5 -7 9 -59 9 -115
l0 -103 -330 0 -330 0 0 79 c0 100 13 139 54 157 37 16 485 20 550 4z" />
                                    <path class="right-path" d="M13467 2384 c-29 -9 -65 -31 -91 -57 -74 -70 -78 -98 -74 -489 3
-322 4 -334 25 -375 27 -49 79 -95 131 -113 27 -10 131 -15 397 -18 450 -4
642 9 699 51 18 13 16 18 -30 96 -49 82 -49 82 -84 77 -54 -9 -764 -20 -794
-12 -51 13 -56 41 -56 320 0 144 4 266 10 281 6 16 25 32 47 42 33 14 73 15
333 7 162 -4 335 -8 384 -9 l90 0 23 85 c13 50 19 88 14 93 -5 5 -56 15 -113
23 -151 20 -844 18 -911 -2z" />




                                    <path class="right-path" d="M14740 2105 l0 -775 145 0 145 0 0 425 c0 409 1 425 19 435 12 6 129
10 311 10 309 0 346 -5 369 -48 7 -14 11 -153 11 -421 l0 -401 145 0 146 0 -3
448 c-3 438 -3 448 -25 488 -30 56 -81 98 -143 119 -47 16 -84 17 -334 12
-172 -4 -318 -12 -376 -21 -52 -9 -101 -15 -107 -16 -10 0 -13 58 -13 260 l0
260 -145 0 -145 0 0 -775z" />
                                    <path class="right-path" d="M16350 2302 l0 -160 215 -133 c118 -74 215 -136 214 -139 0 -3 -96
-67 -214 -143 l-215 -139 0 -159 0 -160 363 245 362 244 2 113 3 114 -336 220
c-185 121 -350 228 -365 238 l-29 19 0 -160z" />
                                </g>
                            </svg>